<?xml version="1.0" encoding="UTF-8"?>
<!DOCTYPE svg PUBLIC "-//W3C//DTD SVG 1.1//EN" "http://www.w3.org/Graphics/SVG/1.1/DTD/svg11.dtd">
<!-- Creator: CorelDRAW -->
<svg xmlns="http://www.w3.org/2000/svg" xml:space="preserve" width="1.70666in" height="1.70666in" version="1.1" style="shape-rendering:geometricPrecision; text-rendering:geometricPrecision; image-rendering:optimizeQuality; fill-rule:evenodd; clip-rule:evenodd"
viewBox="0 0 1707 1707"
 xmlns:xlink="http://www.w3.org/1999/xlink">
 <defs>
  <style type="text/css">
   <![CDATA[
    .fil0 {fill:#000002}
   ]]>
  </style>
 </defs>
 <g id="Layer_x0020_1">
  <metadata id="CorelCorpID_0Corel-Layer"/>
  <g id="_300685256">
   <g>
    <g>
     <path class="fil0" d="M1239 1309l-9 0c-8,0 -16,-4 -21,-10 -38,-53 -100,-85 -165,-85 -65,0 -127,32 -166,85 -4,6 -12,10 -20,10l-507 0c-14,0 -25,-11 -25,-26l0 -196c0,-123 122,-222 272,-222l13 0c6,0 11,2 16,5l168 135 169 -135c4,-3 10,-5 16,-5l13 0c150,0 272,99 272,222l0 196c0,15 -11,26 -26,26zm-862 -51l468 0c48,-60 122,-95 199,-95 63,0 123,23 169,64l0 -140c0,-94 -99,-171 -220,-171l-4 0 -178 142c-9,7 -22,7 -32,0l-177 -142 -4 0c-122,0 -221,77 -221,171l0 171z"/>
    </g>
    <g>
     <path class="fil0" d="M986 916c-5,0 -11,-2 -16,-5l-88 -71c-12,-9 -13,-25 -4,-36 8,-12 25,-13 36,-4l88 70c12,9 13,25 5,37 -6,6 -13,9 -21,9z"/>
    </g>
    <g>
     <path class="fil0" d="M611 916c-8,0 -15,-3 -20,-9 -9,-12 -7,-28 4,-37l88 -70c12,-9 28,-8 37,4 9,11 7,27 -4,36l-89 71c-5,3 -11,5 -16,5z"/>
    </g>
    <g>
     <path class="fil0" d="M501 1309c-15,0 -26,-11 -26,-26l0 -122c0,-14 11,-26 26,-26 14,0 26,12 26,26l0 122c0,15 -12,26 -26,26z"/>
    </g>
    <g>
     <path class="fil0" d="M1086 1218c-14,0 -26,-11 -26,-26l0 -31c0,-14 12,-26 26,-26 14,0 26,12 26,26l0 31c0,15 -12,26 -26,26z"/>
    </g>
    <g>
     <path class="fil0" d="M799 867c-144,0 -262,-117 -262,-261 0,-144 118,-261 262,-261 144,0 261,117 261,261 0,144 -117,261 -261,261zm0 -470c-116,0 -210,94 -210,209 0,116 94,210 210,210 115,0 209,-94 209,-210 0,-115 -94,-209 -209,-209z"/>
    </g>
    <g>
     <path class="fil0" d="M795 1622c-438,0 -795,-356 -795,-795 0,-438 357,-795 795,-795 439,0 796,357 796,795 0,203 -77,397 -216,545 -5,5 -12,8 -19,8l-91 0c-12,0 -22,-8 -25,-19 -25,-86 -106,-147 -196,-147 -113,0 -205,92 -205,205 0,58 25,114 69,152 7,7 10,18 7,27 -3,10 -11,17 -21,18 -33,4 -66,6 -99,6zm0 -1538c-410,0 -743,333 -743,743 0,410 333,744 743,744 14,0 28,-1 42,-2 -32,-43 -49,-96 -49,-150 0,-141 115,-256 256,-256 106,0 202,67 239,165l61 0c126,-137 195,-315 195,-501 0,-410 -334,-743 -744,-743z"/>
    </g>
    <g>
     <path class="fil0" d="M1044 1675c-141,0 -256,-115 -256,-256 0,-141 115,-256 256,-256 106,0 202,67 239,165l324 0c7,0 13,3 18,8l74 74c10,10 10,26 0,36l-78 78c-5,5 -11,8 -18,8l-46 0c-8,0 -16,-4 -21,-11l-12 -17 -12 16c-5,7 -13,11 -21,11 0,0 0,0 0,0 -8,0 -16,-4 -21,-11l-13 -17 -15 20c-5,7 -13,10 -21,10 0,0 0,0 0,0 -8,0 -16,-3 -21,-10l-17 -23 -16 22c-4,6 -11,9 -19,10 -7,0 -15,-2 -20,-8l-30 -30 -9 0c-33,106 -133,181 -245,181zm0 -461c-113,0 -205,92 -205,205 0,112 92,204 205,204 95,0 179,-67 199,-160 3,-12 14,-21 26,-21l40 0c6,0 13,3 18,8l17 17 18 -25c5,-7 13,-10 21,-10 0,0 0,0 0,0 8,0 16,3 20,10l18 23 15 -21c5,-7 13,-11 21,-11 0,0 0,0 0,0 8,0 16,4 21,11l13 17 12 -16c4,-7 12,-11 20,-11 0,0 0,0 0,0 9,0 16,4 21,11l26 35 22 0 52 -52 -48 -48 -331 0c-12,0 -22,-8 -25,-19 -25,-86 -106,-147 -196,-147z"/>
    </g>
    <g>
     <path class="fil0" d="M972 1510c-24,0 -47,-10 -64,-27 -17,-17 -27,-40 -27,-64 0,-25 10,-47 27,-65 17,-17 40,-26 64,-26 25,0 47,9 65,26 17,18 26,40 26,65 0,24 -9,47 -26,64 -18,17 -40,27 -65,27zm0 -131c-10,0 -20,5 -28,12 -7,7 -11,17 -11,28 0,10 4,20 11,28 15,14 41,14 56,0 8,-8 12,-18 12,-28 0,-11 -4,-21 -12,-28 -7,-7 -17,-12 -28,-12z"/>
    </g>
   </g>
  </g>
 </g>
</svg>
